HIERARCHY
ROOT root     
{
	OFFSET 0.0000 0.0000 0.0000
	CHANNELS 6 Xposition Yposition Zposition Zrotation Yrotation Xrotation
	JOINT pelvis   
	{
		OFFSET 0.0000 0.0000 0.0000
		CHANNELS 3 Zrotation Yrotation Xrotation
		JOINT thorax   
		{
			OFFSET 0.0000 23.0750 -5.0000
			CHANNELS 3 Zrotation Yrotation Xrotation
			JOINT rclavicle
			{
				OFFSET 0.0000 28.0009 0.0000
				CHANNELS 3 Zrotation Yrotation Xrotation
				JOINT rhumerus 
				{
					OFFSET -18.5725 5.5939 0.0000
					CHANNELS 3 Zrotation Yrotation Xrotation
					JOINT rradius  
					{
						OFFSET -24.8459 0.0000 0.0000
						CHANNELS 3 Zrotation Yrotation Xrotation
						JOINT rhand    
						{
							OFFSET -24.5477 0.0000 0.0000
							CHANNELS 3 Zrotation Yrotation Xrotation
							End Site
							{
								OFFSET -8.1826 0.0000 0.0000
							}
						}
					}
				}
			}
			JOINT lclavicle
			{
				OFFSET 0.0000 28.0009 0.0000
				CHANNELS 3 Zrotation Yrotation Xrotation
				JOINT lhumerus 
				{
					OFFSET 18.5725 5.5939 0.0000
					CHANNELS 3 Zrotation Yrotation Xrotation
					JOINT lradius  
					{
						OFFSET 24.8459 0.0000 0.0000
						CHANNELS 3 Zrotation Yrotation Xrotation
						JOINT lhand    
						{
							OFFSET 24.5477 0.0000 0.0000
							CHANNELS 3 Zrotation Yrotation Xrotation
							End Site
							{
								OFFSET 8.1826 0.0000 0.0000
							}
						}
					}
				}
			}
			JOINT head     
			{
				OFFSET 0.0000 35.2030 0.0000
				CHANNELS 3 Zrotation Yrotation Xrotation
				End Site
				{
					OFFSET 0.0000 11.7343 0.0000
				}
			}
		}
		JOINT rfemur   
		{
			OFFSET -8.2817 0.0000 0.0000
			CHANNELS 3 Zrotation Yrotation Xrotation
			JOINT rtibia   
			{
				OFFSET 0.0000 -43.3627 0.0000
				CHANNELS 3 Zrotation Yrotation Xrotation
				JOINT rfoot    
				{
					OFFSET 0.0000 -38.2947 0.0000
					CHANNELS 3 Zrotation Yrotation Xrotation
					JOINT rtoes    
					{
						OFFSET 0.0000 0.0000 16.6054
						CHANNELS 3 Zrotation Yrotation Xrotation
						End Site
						{
							OFFSET 0.0000 0.0000 5.5351
						}
					}
				}
			}
		}
		JOINT lfemur   
		{
			OFFSET 8.2817 0.0000 0.0000
			CHANNELS 3 Zrotation Yrotation Xrotation
			JOINT ltibia   
			{
				OFFSET 0.0000 -43.3627 0.0000
				CHANNELS 3 Zrotation Yrotation Xrotation
				JOINT lfoot    
				{
					OFFSET 0.0000 -38.2947 0.0000
					CHANNELS 3 Zrotation Yrotation Xrotation
					JOINT ltoes    
					{
						OFFSET 0.0000 0.0000 16.6054
						CHANNELS 3 Zrotation Yrotation Xrotation
						End Site
						{
							OFFSET 0.0000 0.0000 5.5351
						}
					}
				}
			}
		}
	}
}
MOTION
Frames: 15
Frame Time: .0333333
27.289 73.54 4.5434 -45.397 85.4086 -23.3732 0 -0 0 9.35775 -10.4804 15.3655 28.2394 -11.6534 -9.14804e-05 49.8879 -2.7173 0.536451 0 74.4839 0 -2.90612 6.28933 -0.159703 -16.3651 11.9099 4.1317e-06 -57.0149 3.89864 5.37813 4.24732e-06 -85.7732 -3.94524e-06 -1.55909 4.01974 -0.0547005 6.20232 -2.93331 -20.2645 11.3711 -4.42987 -58.7004 -0 -0 67.5948 -1.89412e-05 -4.90172 -15.7402 1.33272 1.36776e-06 -11.3409 7.08921 5.38217 -26.2935 -0 -0 83.0666 -1.16751e-06 14.4326 1.04789 0.269695 -1.04232e-06 -30.9358 
28.024 73.684 4.6514 -45.4206 85.4809 -23.1878 0 -0 0 9.41682 -10.103 15.3841 28.0305 -11.2581 -8.93813e-05 50.1446 -1.78184 0.655186 -1.28708e-06 74.7141 -9.82515e-07 -3.19045 6.33278 -0.176496 -16.3747 11.7563 -7.8165e-05 -57.3023 4.09274 6.10526 0 -83.9935 -0 -1.68717 4.13514 -0.0608996 6.36367 -3.26689 -20.0777 11.4227 -4.54702 -58.3338 -0 -0 67.6301 -2.08315e-06 -5.05702 -16.1903 1.41343 5.32484e-06 -11.4235 6.83653 5.47756 -27.9975 -0 -0 84.2591 -6.04882e-07 15.3324 -0.405296 -0.1111 -1.53931e-07 -29.3079 
28.753 73.84 4.751 -45.1662 85.5431 -22.7456 0 -0 0 9.43845 -9.70361 15.4317 27.7745 -10.8743 1.53655e-05 50.3952 -0.838691 0.842422 -0 74.9647 -0 -3.45914 6.37662 -0.192697 -16.3909 11.6147 2.15301e-05 -57.5705 4.30039 6.7995 1.46929e-06 -82.2365 -1.68322e-06 -1.81372 4.27186 -0.0676015 6.48924 -3.57129 -19.874 11.468 -4.6859 -57.9364 -0 -0 67.6155 1.83992e-05 -5.19415 -16.6035 1.48793 -2.63308e-06 -11.6625 6.54317 5.6243 -29.7192 -0 -0 85.3399 -3.09468e-06 16.0605 -1.73099 -0.4982 -1.01024e-06 -27.8323 
29.474 74.006 4.8421 -44.6425 85.5948 -22.0418 0 -0 0 9.42776 -9.2842 15.4902 27.474 -10.5034 4.78306e-05 50.6305 0.1049 1.09881 -0 75.2343 -0 -3.70567 6.41873 -0.2079 -16.416 11.4804 -3.2892e-05 -57.8189 4.54629 7.45215 3.45264e-06 -80.5249 -3.60942e-06 -1.92291 4.43184 -0.0743996 6.57837 -3.84595 -19.647 11.5018 -4.83947 -57.5195 -0 -0 67.5536 -9.36374e-06 -5.30224 -16.956 1.55043 -4.22648e-06 -12.0462 6.20698 5.81181 -31.4663 -0 -0 86.3026 -2.71682e-06 16.6082 -2.90932 -0.867308 -2.29664e-06 -26.4597 
30.191 74.181 4.924 -43.7327 85.6242 -20.9688 0 -0 0 9.37312 -8.84406 15.5696 27.1381 -10.1503 1.01628e-05 50.8437 1.0561 1.42502 3.26162e-07 75.5226 9.13999e-07 -3.91728 6.45734 -0.221101 -16.4444 11.3619 4.79228e-05 -58.0528 4.83146 8.06045 0 -78.8808 0 -2.00607 4.61447 -0.0807996 6.63651 -4.08832 -19.3996 11.5117 -5.00128 -57.0786 -0 -0 67.4545 -2.41561e-05 -5.36606 -17.2345 1.59417 -5.16304e-06 -12.5397 5.81965 6.03764 -33.2147 -0 -0 87.1371 1.60527e-05 16.9789 -3.93379 -1.19996 1.63694e-05 -25.2049 
30.907 74.363 4.9959 -42.4247 85.6431 -19.5134 0 -0 0 9.27061 -8.38514 15.6623 26.7715 -9.81666 -1.70089e-05 51.0277 2.01245 1.817 7.57856e-07 75.8292 9.72953e-07 -4.08675 6.49221 -0.231905 -16.4754 11.2609 -5.45104e-05 -58.2695 5.16669 8.62169 2.56238e-06 -77.3237 -2.71959e-06 -2.05271 4.81821 -0.0863999 6.66707 -4.29879 -19.1329 11.4883 -5.1671 -56.6185 -0 -0 67.3287 5.4912e-06 -5.37391 -17.4236 1.61347 -1.09304e-05 -13.1543 5.3755 6.29267 -34.9617 -0 -0 87.8349 1.12945e-05 17.1915 -4.82019 -1.48923 -1.27548e-05 -24.031 
31.624 74.55 5.0587 -40.6417 85.6507 -17.6118 0 -0 0 9.11602 -7.90814 15.7799 26.3825 -9.50532 -7.22286e-05 51.1822 2.98011 2.26732 0 76.1586 0 -4.20112 6.52065 -0.239401 -16.506 11.1871 -4.73894e-05 -58.4699 5.54828 9.13503 0 -75.8653 -0 -2.06119 5.03951 -0.0906999 6.6753 -4.4769 -18.8536 11.4265 -5.33078 -56.1327 -0 -0 67.1896 1.9849e-05 -5.31655 -17.5323 1.60578 -2.53202e-06 -13.7451 4.87566 6.57658 -36.6854 -0 -0 88.3869 -1.29765e-05 17.2676 -5.58364 -1.73231 -6.56266e-06 -23.0076 
32.342 74.742 5.1129 -38.5118 85.6261 -15.3768 0 -0 0 8.91534 -7.41623 15.9141 25.9737 -9.21621 5.10627e-05 51.3016 3.95424 2.76493 -1.01591e-06 76.5065 -8.00978e-07 -4.25613 6.54232 -0.243404 -16.5378 11.1416 8.2388e-05 -58.6489 5.98366 9.59994 0 -74.525 -0 -2.02947 5.27371 -0.0935044 6.66273 -4.62632 -18.5647 11.3257 -5.48863 -55.6297 -0 -0 67.0447 1.6351e-05 -5.19274 -17.5583 1.5704 -4.7143e-06 -14.3315 4.32353 6.88114 -38.3865 -0 -0 88.7906 -9.48478e-06 17.2369 -6.2525 -1.93527 4.6554e-06 -22.146 
33.061 74.937 5.1581 -36.051 85.5772 -12.8232 0 -0 0 8.66884 -6.91295 16.0567 25.5487 -8.94759 6.65571e-05 51.3865 4.92769 3.29903 0 76.8814 0 -4.25647 6.56062 -0.244097 -16.5758 11.1234 -5.10757e-05 -58.8012 6.47814 10.0198 0 -73.316 -0 -1.95608 5.51365 -0.0941987 6.63245 -4.75199 -18.2686 11.1838 -5.64073 -55.1198 -0 -0 66.9038 1.26333e-05 -5.00433 -17.5039 1.50864 8.23787e-06 -14.9544 3.71956 7.19534 -40.0644 -0 -0 89.0442 2.84462e-05 17.133 -6.86538 -2.11038 9.51752e-06 -21.3806 
33.782 75.135 5.1959 -33.3748 85.5115 -10.0715 0 -0 0 8.38407 -6.4006 16.2086 25.1134 -8.69945 2.97116e-06 51.439 5.89838 3.85713 4.11629e-07 77.278 9.98356e-07 -4.20448 6.5765 -0.241707 -16.6193 11.1357 -2.53181e-05 -58.9197 7.0281 10.3964 0 -72.2506 -0 -1.84891 5.7506 -0.0929006 6.58607 -4.85816 -17.9709 11.0061 -5.78616 -54.601 -0 -0 66.7725 -2.5296e-05 -4.75847 -17.3828 1.42457 3.59176e-06 -15.626 3.07331 7.51449 -41.7146 -0 -0 89.1471 -1.69706e-05 16.9898 -7.44553 -2.26729 -1.0085e-05 -20.7462 
34.506 75.336 5.2264 -30.5704 85.4307 -7.20442 0 -0 0 8.06353 -5.88253 16.365 24.6684 -8.4706 9.21747e-06 51.4573 6.86194 4.42853 4.35995e-07 77.7024 1.02249e-06 -4.11091 6.59332 -0.2369 -16.671 11.1809 -5.88225e-05 -59.0026 7.62838 10.7379 0 -71.3323 -0 -1.71631 5.97444 -0.089601 6.52645 -4.94946 -17.6772 10.7946 -5.92817 -54.0782 -0 -0 66.6535 -1.1733e-05 -4.46475 -17.2066 1.32325 9.71209e-06 -16.4152 2.38832 7.8301 -43.3338 -0 -0 89.0965 4.01307e-05 16.8375 -8.00459 -2.41308 1.23121e-05 -20.3015 
35.232 75.538 5.2534 -27.8763 85.3073 -4.44887 0 -0 0 7.72869 -5.3607 16.5255 24.2193 -8.26119 2.92757e-05 51.441 7.81358 4.99799 -0 78.1583 -0 -3.98103 6.6082 -0.229895 -16.7348 11.2556 -7.32265e-05 -59.0481 8.27701 11.0424 1.04697e-06 -70.5558 -7.40711e-07 -1.575 6.17589 -0.0850008 6.4508 -5.03173 -17.3893 10.5673 -6.06532 -53.5469 -0 -0 66.539 -6.63948e-06 -4.13829 -16.9997 1.21185 -1.96433e-06 -17.2817 1.68608 8.14321 -44.9242 -0 -0 88.9019 -3.74037e-05 16.6982 -8.55817 -2.55592 1.58801e-05 -19.9445 
35.962 75.741 5.2771 -25.3194 85.1729 -1.83868 0 -0 0 7.38357 -4.83824 16.6862 23.768 -8.07074 2.06014e-05 51.3865 8.74894 5.55653 -0 78.6477 -0 -3.83163 6.62371 -0.221804 -16.811 11.3595 6.25319e-06 -59.0556 8.96649 11.3161 7.12558e-07 -69.9219 -1.01911e-06 -1.43709 6.34585 -0.0796988 6.36049 -5.10993 -17.1091 10.3292 -6.2038 -53.0072 -0 -0 66.424 -8.62654e-06 -3.79112 -16.7717 1.0954 2.16578e-07 -18.2869 0.971153 8.44698 -46.484 -0 -0 88.5676 -7.96862e-05 16.594 -9.10097 -2.69855 6.23516e-06 -19.7054 
36.695 75.944 5.299 -23.0085 85.0323 0.518139 0 -0 0 7.03665 -4.31816 16.8441 23.3195 -7.89913 -3.28024e-05 51.2923 9.66369 6.09571 -0 79.1689 -0 -3.67577 6.63975 -0.2133 -16.8989 11.4908 -6.62524e-05 -59.0255 9.68828 11.5616 6.91394e-07 -69.4167 -9.98186e-07 -1.31691 6.47781 -0.0745004 6.25595 -5.1875 -16.839 10.0896 -6.3478 -52.4578 -0 -0 66.3028 4.52349e-06 -3.43523 -16.5373 0.978914 -1.7183e-06 -19.4638 0.252548 8.73858 -48.0142 -0 -0 88.1022 4.36798e-06 16.541 -9.62336 -2.84222 -1.37166e-06 -19.5363 
37.432 76.148 5.3201 -20.9807 84.8736 2.59379 0 -0 0 6.69551 -3.80281 16.9975 22.8766 -7.74676 7.12038e-05 51.1559 10.5552 6.609 1.53378e-06 79.7235 1.83686e-06 -3.5262 6.65514 -0.205099 -16.9978 11.647 -6.78705e-05 -58.9651 10.4329 11.78 6.75632e-07 -69.0248 -9.82611e-07 -1.22705 6.56782 -0.0703973 6.13673 -5.26754 -16.5774 9.85603 -6.50199 -51.8947 -0 -0 66.166 3.31047e-06 -3.08054 -16.3067 0.865703 2.71548e-06 -20.8136 -0.463094 9.01619 -49.5162 -0 -0 87.5139 2.44156e-05 16.5471 -10.1112 -2.98596 -2.05534e-05 -19.3986 
